# Blender 5.2.0 LTS
# www.blender.org
mtllib s.mtl
o rocket_launcher_juggle.001
v -0.200814 -0.092055 0.041676
v -0.202128 0.038599 0.162200
v -0.202361 0.010439 0.183574
v -0.202579 -0.033626 0.203574
v -0.202673 -0.092055 0.212220
v -0.202579 -0.150488 0.203574
v -0.202361 -0.194549 0.183574
v -0.202128 -0.222713 0.162200
v -0.202128 -0.222713 0.162200
v -0.201845 -0.245798 0.136274
v -0.201404 -0.267350 0.095790
v -0.200814 -0.276830 0.041676
v -0.200230 -0.267350 -0.011994
v -0.199784 -0.245798 -0.052923
v -0.199501 -0.222713 -0.078848
v -0.199501 -0.222713 -0.078848
v -0.199268 -0.194549 -0.100221
v -0.199050 -0.150488 -0.120221
v -0.198956 -0.092055 -0.128867
v -0.199050 -0.033626 -0.120221
v -0.199268 0.010439 -0.100221
v -0.199501 0.038599 -0.078848
v -0.199501 0.038599 -0.078848
v -0.199784 0.061689 -0.052923
v -0.200230 0.083236 -0.011994
v -0.200814 0.092721 0.041676
v -0.201404 0.083236 0.095790
v -0.201845 0.061689 0.136274
v -0.202128 0.038599 0.162200
v 1.069709 0.038599 -0.065054
v -0.199501 0.038599 -0.078848
v 1.069426 0.061688 -0.039128
v -0.199784 0.061689 -0.052923
v 1.068980 0.083236 0.001801
v -0.200230 0.083236 -0.011994
v 1.068395 0.092721 0.055470
v -0.200814 0.092721 0.041676
v 1.067806 0.083236 0.109584
v -0.201404 0.083236 0.095790
v 1.067365 0.061688 0.150069
v -0.201845 0.061689 0.136274
v 1.067082 0.038599 0.175995
v -0.202128 0.038599 0.162200
v -0.199501 0.038599 -0.078848
v 1.069709 0.038599 -0.065054
v -0.199268 0.010439 -0.100221
v 1.069942 0.010439 -0.086427
v -0.199050 -0.033626 -0.120221
v 1.070160 -0.033626 -0.106427
v -0.198956 -0.092055 -0.128867
v 1.070254 -0.092055 -0.115074
v -0.199050 -0.150488 -0.120221
v 1.070160 -0.150488 -0.106427
v -0.199268 -0.194549 -0.100221
v 1.069942 -0.194549 -0.086427
v -0.199501 -0.222713 -0.078848
v 1.069709 -0.222713 -0.065054
v 1.068395 -0.092055 0.055470
v 1.069709 0.038599 -0.065054
v 1.069942 0.010439 -0.086427
v 1.070160 -0.033626 -0.106427
v 1.070254 -0.092055 -0.115074
v 1.070160 -0.150488 -0.106427
v 1.069942 -0.194549 -0.086427
v 1.069709 -0.222713 -0.065054
v 1.069709 -0.222713 -0.065054
v 1.069426 -0.245798 -0.039128
v 1.068980 -0.267350 0.001801
v 1.068395 -0.276830 0.055470
v 1.067806 -0.267350 0.109584
v 1.067365 -0.245798 0.150069
v 1.067082 -0.222713 0.175995
v 1.067082 -0.222713 0.175995
v 1.066849 -0.194549 0.197368
v 1.066631 -0.150488 0.217367
v 1.066537 -0.092055 0.226014
v 1.066631 -0.033626 0.217367
v 1.066849 0.010439 0.197368
v 1.067082 0.038599 0.175995
v 1.067082 0.038599 0.175995
v 1.067365 0.061688 0.150069
v 1.067806 0.083236 0.109584
v 1.068395 0.092721 0.055470
v 1.068980 0.083236 0.001801
v 1.069426 0.061688 -0.039128
v 1.069709 0.038599 -0.065054
v 1.067082 -0.222713 0.175995
v -0.202128 -0.222713 0.162200
v 1.067365 -0.245798 0.150069
v -0.201845 -0.245798 0.136274
v 1.067806 -0.267350 0.109584
v -0.201404 -0.267350 0.095790
v 1.068395 -0.276830 0.055470
v -0.200814 -0.276830 0.041676
v 1.068980 -0.267350 0.001801
v -0.200230 -0.267350 -0.011994
v 1.069426 -0.245798 -0.039128
v -0.199784 -0.245798 -0.052923
v 1.069709 -0.222713 -0.065054
v -0.199501 -0.222713 -0.078848
v 1.067082 0.038599 0.175995
v -0.202128 0.038599 0.162200
v 1.066849 0.010439 0.197368
v -0.202361 0.010439 0.183574
v 1.066631 -0.033626 0.217367
v -0.202579 -0.033626 0.203574
v 1.066537 -0.092055 0.226014
v -0.202673 -0.092055 0.212220
v 1.066631 -0.150488 0.217367
v -0.202579 -0.150488 0.203574
v 1.066849 -0.194549 0.197368
v -0.202361 -0.194549 0.183574
v 1.067082 -0.222713 0.175995
v -0.202128 -0.222713 0.162200
vn -0.9999 -0.0000 -0.0109
vn 0.0080 0.6783 -0.7347
vn 0.0080 0.6783 -0.7348
vn 0.0063 0.8133 -0.5818
vn 0.0037 0.9406 -0.3396
vn 0.0036 0.9405 -0.3396
vn -0.0000 1.0000 0.0001
vn -0.0036 0.9405 0.3397
vn -0.0037 0.9405 0.3396
vn -0.0063 0.8133 0.5818
vn -0.0080 0.6783 0.7347
vn 0.0080 0.6782 -0.7348
vn 0.0093 0.5205 -0.8538
vn 0.0104 0.2940 -0.9557
vn 0.0109 -0.0000 -0.9999
vn 0.0104 -0.2941 -0.9557
vn 0.0093 -0.5205 -0.8538
vn 0.0080 -0.6782 -0.7348
vn 0.9999 -0.0000 0.0109
vn -0.0080 -0.6782 0.7348
vn -0.0080 -0.6783 0.7347
vn -0.0063 -0.8133 0.5818
vn -0.0037 -0.9406 0.3396
vn -0.0036 -0.9406 0.3396
vn -0.0000 -1.0000 0.0001
vn 0.0036 -0.9406 -0.3396
vn 0.0037 -0.9406 -0.3396
vn 0.0063 -0.8133 -0.5818
vn -0.0080 0.6782 0.7348
vn -0.0093 0.5205 0.8538
vn -0.0104 0.2940 0.9557
vn -0.0109 -0.0000 0.9999
vn -0.0104 -0.2941 0.9557
vn -0.0093 -0.5205 0.8538
vn -0.0093 -0.5204 0.8538
vt 2.296880 0.953125
vt 2.335880 0.979127
vt 2.330020 0.986271
vt 2.341340 0.967948
vt 2.343750 0.953125
vt 2.341340 0.938302
vt 2.335880 0.927123
vt 2.330020 0.919979
vt 2.322880 0.914123
vt 2.311700 0.908655
vt 2.296880 0.906250
vt 2.282050 0.908655
vt 2.270870 0.914123
vt 2.263730 0.919979
vt 2.257870 0.927123
vt 2.252410 0.938302
vt 2.250000 0.953125
vt 2.252410 0.967948
vt 2.257870 0.979127
vt 2.263730 0.986271
vt 2.270870 0.992127
vt 2.282050 0.997595
vt 2.296880 1.000000
vt 2.311700 0.997595
vt 2.322880 0.992127
vt 2.625000 1.000000
vt 2.250000 1.000000
vt 2.625000 0.984375
vt 2.250000 0.984375
vt 2.625000 0.968750
vt 2.250000 0.968750
vt 2.625000 0.953125
vt 2.625000 0.937500
vt 2.250000 0.937500
vt 2.625000 0.921875
vt 2.250000 0.921875
vt 2.625000 0.906250
vt 2.250000 0.906250
s 1
usemtl Part1Mtl.004
f 1/1/1 3/2/1 2/3/1
f 1/1/1 4/4/1 3/2/1
f 1/1/1 5/5/1 4/4/1
f 1/1/1 6/6/1 5/5/1
f 1/1/1 7/7/1 6/6/1
f 1/1/1 8/8/1 7/7/1
f 1/1/1 10/9/1 9/8/1
f 1/1/1 11/10/1 10/9/1
f 1/1/1 12/11/1 11/10/1
f 1/1/1 13/12/1 12/11/1
f 1/1/1 14/13/1 13/12/1
f 1/1/1 15/14/1 14/13/1
f 1/1/1 17/15/1 16/14/1
f 1/1/1 18/16/1 17/15/1
f 1/1/1 19/17/1 18/16/1
f 1/1/1 20/18/1 19/17/1
f 1/1/1 21/19/1 20/18/1
f 1/1/1 22/20/1 21/19/1
f 1/1/1 24/21/1 23/20/1
f 1/1/1 25/22/1 24/21/1
f 1/1/1 26/23/1 25/22/1
f 1/1/1 27/24/1 26/23/1
f 1/1/1 28/25/1 27/24/1
f 1/1/1 29/3/1 28/25/1
f 30/26/2 31/27/3 32/28/4
f 32/28/4 31/27/3 33/29/4
f 32/28/4 33/29/4 34/30/5
f 34/30/5 33/29/4 35/31/6
f 34/30/5 35/31/6 36/32/7
f 36/32/7 35/31/6 37/17/7
f 36/32/7 37/17/7 38/33/8
f 38/33/8 37/17/7 39/34/9
f 38/33/8 39/34/9 40/35/10
f 40/35/10 39/34/9 41/36/10
f 40/35/10 41/36/10 42/37/11
f 42/37/11 41/36/10 43/38/11
f 44/26/12 45/27/12 46/28/13
f 46/28/13 45/27/12 47/29/13
f 46/28/13 47/29/13 48/30/14
f 48/30/14 47/29/13 49/31/14
f 48/30/14 49/31/14 50/32/15
f 50/32/15 49/31/14 51/17/15
f 50/32/15 51/17/15 52/33/16
f 52/33/16 51/17/15 53/34/16
f 52/33/16 53/34/16 54/35/17
f 54/35/17 53/34/16 55/36/17
f 54/35/17 55/36/17 56/37/18
f 56/37/18 55/36/17 57/38/18
f 58/1/19 60/2/19 59/3/19
f 58/1/19 61/4/19 60/2/19
f 58/1/19 62/5/19 61/4/19
f 58/1/19 63/6/19 62/5/19
f 58/1/19 64/7/19 63/6/19
f 58/1/19 65/8/19 64/7/19
f 58/1/19 67/9/19 66/8/19
f 58/1/19 68/10/19 67/9/19
f 58/1/19 69/11/19 68/10/19
f 58/1/19 70/12/19 69/11/19
f 58/1/19 71/13/19 70/12/19
f 58/1/19 72/14/19 71/13/19
f 58/1/19 74/15/19 73/14/19
f 58/1/19 75/16/19 74/15/19
f 58/1/19 76/17/19 75/16/19
f 58/1/19 77/18/19 76/17/19
f 58/1/19 78/19/19 77/18/19
f 58/1/19 79/20/19 78/19/19
f 58/1/19 81/21/19 80/20/19
f 58/1/19 82/22/19 81/21/19
f 58/1/19 83/23/19 82/22/19
f 58/1/19 84/24/19 83/23/19
f 58/1/19 85/25/19 84/24/19
f 58/1/19 86/3/19 85/25/19
f 87/26/20 88/27/21 89/28/22
f 89/28/22 88/27/21 90/29/22
f 89/28/22 90/29/22 91/30/23
f 91/30/23 90/29/22 92/31/24
f 91/30/23 92/31/24 93/32/25
f 93/32/25 92/31/24 94/17/25
f 93/32/25 94/17/25 95/33/26
f 95/33/26 94/17/25 96/34/27
f 95/33/26 96/34/27 97/35/28
f 97/35/28 96/34/27 98/36/28
f 97/35/28 98/36/28 99/37/18
f 99/37/18 98/36/28 100/38/18
f 101/26/29 102/27/29 103/28/30
f 103/28/30 102/27/29 104/29/30
f 103/28/30 104/29/30 105/30/31
f 105/30/31 104/29/30 106/31/31
f 105/30/31 106/31/31 107/32/32
f 107/32/32 106/31/31 108/17/32
f 107/32/32 108/17/32 109/33/33
f 109/33/33 108/17/32 110/34/33
f 109/33/33 110/34/33 111/35/34
f 111/35/34 110/34/33 112/36/35
f 111/35/34 112/36/35 113/37/20
f 113/37/20 112/36/35 114/38/20
